<?xml version="1.0" encoding="UTF-8"?>
<svg width="800" height="500" viewBox="0 0 800 500" fill="none" xmlns="http://www.w3.org/2000/svg">
  <!-- Background sky gradient -->
  <defs>
    <linearGradient id="skyGradient" x1="0%" y1="0%" x2="0%" y2="100%">
      <stop offset="0%" stop-color="#0284c7" />
      <stop offset="100%" stop-color="#38bdf8" />
    </linearGradient>
    <linearGradient id="fieldGradient" x1="0%" y1="0%" x2="100%" y2="0%">
      <stop offset="0%" stop-color="#16a34a" />
      <stop offset="50%" stop-color="#22c55e" />
      <stop offset="100%" stop-color="#16a34a" />
    </linearGradient>
    <linearGradient id="crowdGradient" x1="0%" y1="0%" x2="0%" y2="100%">
      <stop offset="0%" stop-color="#334155" />
      <stop offset="100%" stop-color="#1e293b" />
    </linearGradient>
    <pattern id="fieldLines" patternUnits="userSpaceOnUse" width="100" height="20">
      <rect width="100" height="20" fill="url(#fieldGradient)" />
      <line x1="0" y1="10" x2="100" y2="10" stroke="#dcfce7" stroke-width="1" />
    </pattern>
  </defs>
  
  <!-- Sky -->
  <rect width="800" height="200" fill="url(#skyGradient)" />
  
  <!-- Stadium structure -->
  <path d="M0,200 L800,200 L800,300 L0,300 Z" fill="#cbd5e1" />
  
  <!-- Stadium seats -->
  <path d="M50,170 L750,170 L800,300 L0,300 Z" fill="url(#crowdGradient)" />
  
  <!-- Stadium crowd dots (simplified representation) -->
  <g fill="#94a3b8">
    <circle cx="100" cy="200" r="2" />
    <circle cx="120" cy="190" r="2" />
    <circle cx="140" cy="210" r="2" />
    <circle cx="160" cy="195" r="2" />
    <circle cx="180" cy="205" r="2" />
    <circle cx="200" cy="190" r="2" />
    <circle cx="220" cy="200" r="2" />
    <circle cx="240" cy="210" r="2" />
    <circle cx="260" cy="195" r="2" />
    <circle cx="280" cy="205" r="2" />
    <circle cx="300" cy="190" r="2" />
    <circle cx="320" cy="200" r="2" />
    <circle cx="340" cy="210" r="2" />
    <circle cx="360" cy="195" r="2" />
    <circle cx="380" cy="205" r="2" />
    <circle cx="400" cy="190" r="2" />
    <circle cx="420" cy="200" r="2" />
    <circle cx="440" cy="210" r="2" />
    <circle cx="460" cy="195" r="2" />
    <circle cx="480" cy="205" r="2" />
    <circle cx="500" cy="190" r="2" />
    <circle cx="520" cy="200" r="2" />
    <circle cx="540" cy="210" r="2" />
    <circle cx="560" cy="195" r="2" />
    <circle cx="580" cy="205" r="2" />
    <circle cx="600" cy="190" r="2" />
    <circle cx="620" cy="200" r="2" />
    <circle cx="640" cy="210" r="2" />
    <circle cx="660" cy="195" r="2" />
    <circle cx="680" cy="205" r="2" />
    <circle cx="700" cy="190" r="2" />
  </g>
  
  <!-- Football field -->
  <rect x="0" y="300" width="800" height="200" fill="url(#fieldLines)" />
  
  <!-- Center circle -->
  <circle cx="400" cy="400" r="60" stroke="#ffffff" stroke-width="2" fill="none" />
  <circle cx="400" cy="400" r="5" fill="#ffffff" />
  
  <!-- Center line -->
  <line x1="400" y1="300" x2="400" y2="500" stroke="#ffffff" stroke-width="2" />
  
  <!-- Penalty areas -->
  <rect x="50" y="330" width="100" height="140" stroke="#ffffff" stroke-width="2" fill="none" />
  <rect x="650" y="330" width="100" height="140" stroke="#ffffff" stroke-width="2" fill="none" />
  
  <!-- Goal areas -->
  <rect x="50" y="360" width="40" height="80" stroke="#ffffff" stroke-width="2" fill="none" />
  <rect x="710" y="360" width="40" height="80" stroke="#ffffff" stroke-width="2" fill="none" />
  
  <!-- Goals -->
  <rect x="30" y="380" width="20" height="40" fill="#e2e8f0" />
  <rect x="750" y="380" width="20" height="40" fill="#e2e8f0" />
  
  <!-- Penalty spots -->
  <circle cx="120" cy="400" r="3" fill="#ffffff" />
  <circle cx="680" cy="400" r="3" fill="#ffffff" />
  
  <!-- Corner arcs -->
  <path d="M50,300 A20,20 0 0,1 70,320" stroke="#ffffff" stroke-width="2" fill="none" />
  <path d="M750,300 A20,20 0 0,0 730,320" stroke="#ffffff" stroke-width="2" fill="none" />
  <path d="M50,500 A20,20 0 0,0 70,480" stroke="#ffffff" stroke-width="2" fill="none" />
  <path d="M750,500 A20,20 0 0,1 730,480" stroke="#ffffff" stroke-width="2" fill="none" />
</svg>